<svg version="1.1" id="Layer_1" xmlns="http://www.w3.org/2000/svg" xmlns:xlink="http://www.w3.org/1999/xlink" x="0px" y="0px"
	 width="100%" viewBox="0 0 1083 481" enable-background="new 0 0 1083 481" xml:space="preserve">
<path fill="#FEFDFC" opacity="1.000000" stroke="none" 
	d="
M657.000000,482.000000 
	C438.000000,482.000000 219.500000,482.000000 1.000000,482.000000 
	C1.000000,321.666656 1.000000,161.333328 1.000000,1.000000 
	C362.000000,1.000000 723.000000,1.000000 1084.000000,1.000000 
	C1084.000000,161.333328 1084.000000,321.666656 1084.000000,482.000000 
	C941.833313,482.000000 799.666687,482.000000 657.000000,482.000000 
M87.612617,134.012405 
	C93.721558,146.006805 99.804626,158.014603 105.993095,169.967819 
	C106.443428,170.837662 107.643135,171.856567 108.520737,171.881500 
	C114.449577,172.050171 120.385521,171.969498 126.384499,171.969498 
	C126.384499,148.323837 126.384499,125.302155 126.384499,102.417007 
	C121.384201,102.417007 116.818420,102.417007 112.061012,102.417007 
	C112.061012,118.724327 112.061012,134.624802 112.061012,151.799332 
	C110.602058,149.168213 109.769028,147.760315 109.023842,146.307343 
	C102.050171,132.709915 95.122414,119.088760 88.080269,105.526970 
	C87.385025,104.188072 86.070923,102.269783 84.950699,102.203728 
	C79.220406,101.865868 73.459480,102.047516 67.555313,102.047516 
	C67.555313,125.669769 67.555313,148.564224 67.555313,171.668243 
	C72.122704,171.668243 76.339905,171.668243 81.016983,171.668243 
	C81.016983,155.254333 81.016983,139.154266 81.016983,123.054199 
	C81.315300,122.980507 81.613617,122.906822 81.911942,122.833130 
	C83.696213,126.335106 85.480484,129.837082 87.612617,134.012405 
M360.756378,102.016479 
	C357.244965,101.494598 357.138336,103.672569 357.175171,106.275681 
	C357.363373,119.582718 357.473938,132.890976 357.559937,146.199127 
	C357.567383,147.349075 357.197876,148.501450 357.003479,149.652679 
	C354.953827,147.920273 353.936584,146.082733 352.978394,144.214905 
	C346.685364,131.947952 340.504364,119.621620 334.027344,107.452759 
	C332.888702,105.313530 330.694458,102.541130 328.699249,102.281960 
	C323.211029,101.569092 317.569580,102.035805 312.031036,102.035805 
	C312.031036,125.714493 312.031036,148.723206 312.031036,171.668533 
	C316.548950,171.668533 320.632446,171.668533 325.060028,171.668533 
	C325.060028,155.090820 325.060028,138.820847 325.060028,121.592651 
	C328.092316,126.875931 330.751434,131.212204 333.123230,135.700333 
	C338.946075,146.718811 344.589783,157.832138 350.443207,168.834076 
	C351.124146,170.113953 352.624298,171.756485 353.824829,171.824966 
	C359.401093,172.142990 365.005554,171.965698 370.564606,171.965698 
	C370.564606,148.279907 370.564606,125.264191 370.564606,102.016014 
	C367.328857,102.016014 364.507172,102.016014 360.756378,102.016479 
M612.924316,124.500046 
	C612.924316,140.238052 612.924316,155.976059 612.924316,171.704987 
	C617.750549,171.704987 621.838013,171.704987 626.320129,171.704987 
	C626.320129,155.151871 626.320129,138.862244 626.320129,121.387344 
	C627.581909,123.563156 628.281250,124.643311 628.859131,125.784935 
	C635.234802,138.378174 641.445496,151.058441 648.055298,163.527252 
	C649.727295,166.681381 652.232239,170.882446 655.099182,171.591507 
	C660.370300,172.895172 666.194275,171.963440 671.663940,171.963440 
	C671.663940,148.261703 671.663940,125.234848 671.663940,102.348434 
	C667.164551,102.348434 663.085083,102.348434 658.667603,102.348434 
	C658.667603,118.796875 658.667603,134.923309 658.667603,151.872025 
	C655.065125,145.713028 651.747253,140.416718 648.800842,134.921234 
	C643.461853,124.963524 638.383728,114.866150 633.080688,104.888763 
	C632.469482,103.738892 631.156616,102.220245 630.106262,102.169426 
	C624.519409,101.899124 618.912598,102.042244 612.924316,102.042244 
	C612.924316,109.580872 612.924316,116.540497 612.924316,124.500046 
M540.383667,120.047966 
	C539.704102,123.125053 538.626160,126.175179 538.415833,129.284012 
	C537.614807,141.122101 537.348755,152.786301 546.071533,162.617462 
	C560.672729,179.074081 589.869446,175.828430 598.374634,155.508484 
	C604.252869,141.464615 604.667603,126.423737 595.002502,112.816902 
	C587.506592,102.263908 576.813049,99.981827 565.002747,101.212616 
	C553.507935,102.410530 545.549133,108.921379 540.383667,120.047966 
M289.609406,148.830902 
	C288.263519,146.608658 286.917633,144.386398 286.285187,143.342194 
	C289.569977,138.577667 292.899597,134.998962 294.784851,130.775528 
	C300.117004,118.830109 294.009064,105.410805 281.752625,103.421837 
	C271.699371,101.790405 261.331665,102.096840 251.006760,101.539070 
	C251.006760,125.630005 251.006760,148.671783 251.006760,171.708252 
	C256.018921,171.708252 260.621796,171.708252 265.790466,171.708252 
	C265.790466,163.036453 265.790466,154.622238 265.790466,146.428253 
	C269.720215,145.001572 271.724884,146.091736 273.519714,149.301910 
	C277.397980,156.238525 281.729980,162.924744 285.992126,169.639877 
	C286.615082,170.621323 287.843445,171.809845 288.843597,171.859650 
	C293.544586,172.093704 298.263733,171.963791 304.042816,171.963791 
	C298.932526,163.760956 294.470886,156.599319 289.609406,148.830902 
M873.512634,164.047501 
	C883.596497,154.261230 884.788513,141.997543 883.225281,128.995956 
	C881.924622,118.178162 876.989990,109.613968 866.727295,105.232300 
	C854.714661,100.103523 842.023254,102.420258 829.505249,102.063683 
	C829.505249,125.724174 829.505249,148.601715 829.505249,171.488205 
	C837.905640,171.488205 846.020935,171.849976 854.087280,171.377243 
	C860.921387,170.976746 867.502014,169.077805 873.512634,164.047501 
M165.931503,189.167282 
	C162.270081,189.165985 158.585297,189.421005 154.953964,189.089737 
	C151.473618,188.772232 149.968338,190.123108 148.965530,193.370041 
	C144.706406,207.160324 140.168564,220.864212 135.806122,234.623001 
	C133.271774,242.616058 130.877014,250.653381 128.200989,259.383392 
	C133.013443,259.383392 137.140015,259.601746 141.214584,259.237854 
	C142.303833,259.140564 143.699356,257.431946 144.152557,256.174225 
	C145.665665,251.974960 146.815155,247.644699 148.129837,243.278717 
	C155.801620,243.278717 163.244080,243.278717 170.914490,243.278717 
	C172.566803,247.693100 174.057724,252.061813 175.874496,256.290527 
	C176.405792,257.527191 177.795990,259.148560 178.910294,259.246002 
	C182.972763,259.601105 187.085052,259.386292 192.518372,259.386292 
	C184.390335,235.711639 176.621826,213.049698 168.771622,190.416077 
	C168.574234,189.846985 167.476166,189.590271 165.931503,189.167282 
M726.936707,118.528076 
	C725.122864,113.058914 723.309082,107.589745 721.428223,101.918251 
	C716.214600,101.918251 711.222534,102.140160 706.261902,101.841026 
	C702.898071,101.638176 701.753967,103.100510 700.847839,106.067047 
	C696.533813,120.190041 691.994751,134.244415 687.513123,148.316010 
	C685.054138,156.036896 682.550598,163.743591 679.898254,171.981232 
	C682.650635,171.981232 684.795288,172.027817 686.937378,171.973267 
	C696.877380,171.720184 694.540405,173.772263 697.438416,164.110931 
	C699.925720,155.818970 699.855408,155.750488 708.687378,155.816330 
	C713.657227,155.853378 719.541260,154.516769 723.298462,156.721542 
	C726.184509,158.415070 726.252502,164.729919 727.872437,168.872787 
	C728.355896,170.109268 729.779602,171.738083 730.889343,171.833878 
	C734.985962,172.187515 739.131409,171.974442 743.824890,171.974442 
	C738.127869,154.027847 732.616272,136.665527 726.936707,118.528076 
M1003.961792,164.376266 
	C1003.224121,166.708328 1002.486511,169.040405 1001.628357,171.753387 
	C1007.025757,171.753387 1011.804626,171.753387 1016.497192,171.753387 
	C1018.112366,167.398819 1019.740540,163.249603 1021.181030,159.036209 
	C1022.064575,156.451599 1023.594177,155.592087 1026.344360,155.728821 
	C1031.331665,155.976807 1036.367432,156.115860 1041.331421,155.694183 
	C1045.090698,155.374863 1046.220093,157.104584 1046.956787,160.236588 
	C1047.889648,164.201813 1049.180664,168.082764 1050.241455,171.738617 
	C1055.572510,171.738617 1060.188477,171.738617 1065.211914,171.738617 
	C1064.811279,170.156036 1064.558472,168.880722 1064.166016,167.649933 
	C1058.563477,150.081528 1052.994263,132.502213 1047.308105,114.960831 
	C1043.001587,101.675713 1042.932739,101.698242 1028.907959,101.917030 
	C1028.408081,101.924828 1027.803833,101.738770 1027.427490,101.955048 
	C1026.267944,102.621307 1024.629883,103.197090 1024.184326,104.238647 
	C1021.915039,109.544388 1019.741333,114.913116 1017.942932,120.393913 
	C1013.229858,134.757462 1008.729004,149.190613 1003.961792,164.376266 
M430.879517,171.982178 
	C434.858521,171.982178 438.837555,171.982178 443.188477,171.982178 
	C442.858307,170.437927 442.749390,169.292480 442.367676,168.246597 
	C439.931213,161.570938 437.242615,154.981079 435.001434,148.241791 
	C431.333862,137.213287 427.970734,126.083870 424.431183,115.012375 
	C420.220978,101.843201 420.197296,101.988892 406.587433,101.825272 
	C402.950928,101.781548 401.482269,102.925682 400.361725,106.392509 
	C394.755890,123.736336 388.798798,140.966431 383.004364,158.249649 
	C381.540192,162.616806 380.219727,167.032166 378.723206,171.773972 
	C384.411469,171.773972 389.525055,171.773972 394.778412,171.773972 
	C395.487183,169.611557 396.229614,167.584625 396.816986,165.513718 
	C399.571014,155.803604 399.556000,155.762177 409.383331,155.816360 
	C413.692291,155.840118 419.143890,154.507721 421.984100,156.613480 
	C424.774384,158.682236 424.707672,164.412338 426.320007,168.362106 
	C426.916321,169.822876 428.723633,170.789291 430.879517,171.982178 
M925.314087,155.798752 
	C929.833557,154.861526 932.026672,156.913177 932.793213,161.276993 
	C933.278809,164.041550 934.045654,166.801971 935.091919,169.401016 
	C935.526184,170.479767 936.972473,171.788712 938.037415,171.863007 
	C942.142395,172.149384 946.279297,171.979187 950.948608,171.979187 
	C943.415588,148.265564 936.060425,125.112000 928.692505,101.918266 
	C923.132935,101.918266 918.135742,102.134811 913.169006,101.839294 
	C910.052002,101.653831 908.871948,102.933929 908.015930,105.693153 
	C902.755737,122.649544 897.349365,139.560608 891.991150,156.486557 
	C890.406555,161.491821 888.820007,166.496475 887.206848,171.588333 
	C901.878174,173.154984 902.004761,173.190643 905.660889,160.211609 
	C906.582581,156.939789 907.808411,155.454681 911.382996,155.722076 
	C915.686768,156.044022 920.033020,155.798553 925.314087,155.798752 
M216.657059,128.919632 
	C214.897766,128.919632 213.138458,128.919632 211.323944,128.919632 
	C211.323944,123.790085 211.323944,119.353317 211.323944,114.298317 
	C219.934372,114.298317 228.319351,114.298317 236.653275,114.298317 
	C236.653275,109.921799 236.653275,106.174545 236.653275,102.439613 
	C222.962952,102.439613 209.605774,102.439613 196.342407,102.439613 
	C196.342407,125.758141 196.342407,148.655243 196.342407,171.567032 
	C210.028931,171.567032 223.387436,171.567032 236.735489,171.567032 
	C236.735489,167.375397 236.735489,163.598907 236.735489,159.155975 
	C228.144897,159.155975 219.776993,159.155975 211.389526,159.155975 
	C211.389526,153.234604 211.389526,147.988556 211.389526,142.174652 
	C219.407166,142.174652 227.123230,142.174652 234.783188,142.174652 
	C234.783188,137.504486 234.783188,133.415390 234.783188,128.919983 
	C228.869888,128.919983 223.245117,128.919983 216.657059,128.919632 
M292.353760,228.978363 
	C294.503784,228.978363 296.653778,228.978363 299.060974,228.978363 
	C299.060974,224.747833 299.060974,220.859695 299.060974,216.465805 
	C291.149323,216.465805 283.565094,216.465805 275.787415,216.465805 
	C275.787415,211.438324 275.787415,206.926529 275.787415,201.862671 
	C284.407196,201.862671 292.646240,201.862671 300.673157,201.862671 
	C300.673157,197.567688 300.673157,193.837708 300.673157,190.296631 
	C287.024292,190.296631 273.784698,190.296631 260.512024,190.296631 
	C260.512024,213.413696 260.512024,236.153534 260.512024,259.144501 
	C274.083740,259.144501 287.347260,259.144501 300.712097,259.144501 
	C300.712097,255.057785 300.712097,251.178925 300.712097,246.764832 
	C292.123474,246.764832 283.891296,246.764832 275.692444,246.764832 
	C275.692444,240.626282 275.692444,235.035446 275.692444,228.978363 
	C281.118256,228.978363 286.252563,228.978363 292.353760,228.978363 
M122.047935,225.481216 
	C129.798111,212.871750 128.480423,193.717606 107.821114,190.553146 
	C98.950035,189.194351 89.697517,190.325745 80.444992,190.325745 
	C80.444992,213.325653 80.444992,236.062363 80.444992,259.097473 
	C85.415901,259.097473 90.148010,259.097473 95.352921,259.097473 
	C95.352921,250.794876 95.352921,242.704330 95.352921,234.076233 
	C105.449486,234.887421 114.247574,232.676102 122.047935,225.481216 
M328.851074,213.625290 
	C326.517395,211.187759 325.081482,208.576691 326.817444,205.121384 
	C328.546875,201.679077 331.756744,201.042999 334.890137,201.515549 
	C339.549744,202.218246 344.099731,203.647629 348.920502,204.822372 
	C350.206238,201.778122 351.517639,198.744705 352.754333,195.681152 
	C352.987152,195.104385 352.921997,194.407364 352.986542,193.834976 
	C346.361176,189.946594 340.812134,188.673553 331.386139,188.826401 
	C321.957886,188.979294 314.534515,194.046906 312.178101,201.938828 
	C309.469482,211.010376 312.438690,219.841568 320.323059,225.169754 
	C323.890930,227.580872 327.717896,229.657867 331.586700,231.562775 
	C337.346405,234.398712 340.006165,238.206192 338.825409,242.578827 
	C337.711975,246.702103 333.653412,248.567505 327.234802,247.851486 
	C326.251556,247.741821 325.269104,247.494217 324.324463,247.191345 
	C319.962311,245.792725 315.613647,244.351974 310.599670,242.710037 
	C310.599670,245.805923 310.950470,248.633896 310.521057,251.337967 
	C309.796478,255.900757 312.177368,257.997345 316.021393,258.515228 
	C322.069885,259.330048 328.215790,260.292175 334.267365,260.018280 
	C344.380188,259.560547 350.959991,254.123871 353.084534,245.775406 
	C355.622467,235.802383 352.602448,227.834778 343.721863,222.157257 
	C339.120544,219.215546 334.198059,216.776230 328.851074,213.625290 
M980.028809,234.500000 
	C980.028809,219.756226 980.028809,205.012436 980.028809,190.241241 
	C976.820740,190.241241 974.385010,190.241241 971.637878,190.241241 
	C971.637878,208.467819 971.637878,226.432022 971.637878,244.825241 
	C970.883240,244.167374 970.428772,243.927231 970.201050,243.550140 
	C960.755920,227.913086 951.320984,212.269821 941.908142,196.613297 
	C937.377502,189.077454 937.212769,188.982712 927.689758,190.516953 
	C927.689758,213.186325 927.689758,235.903870 927.689758,258.730957 
	C930.541016,258.730957 933.074463,258.730957 935.560242,258.730957 
	C935.560242,240.167419 935.560242,222.009888 935.560242,203.113037 
	C936.779968,205.007629 937.702332,206.323425 938.506836,207.707733 
	C947.105225,222.502884 955.660767,237.322952 964.279358,252.106277 
	C968.840210,259.929291 970.658325,260.626740 980.028809,258.285248 
	C980.028809,250.760437 980.028809,243.130203 980.028809,234.500000 
M66.746445,247.110718 
	C67.129303,246.394180 67.691025,245.719009 67.867699,244.954803 
	C69.899010,236.168152 66.634300,229.201538 59.802349,223.991928 
	C55.602341,220.789276 50.744400,218.456100 46.220741,215.669434 
	C41.521561,212.774628 39.632317,209.061386 41.313702,205.437912 
	C43.301384,201.154373 47.153522,200.869629 51.121532,201.782959 
	C54.805149,202.630829 58.403851,203.847672 62.316025,204.982117 
	C64.096687,201.273605 65.895889,197.526474 68.382332,192.348038 
	C60.060947,191.106171 52.470158,189.162415 44.847137,189.026520 
	C33.529900,188.824753 26.044748,197.231308 26.005192,208.538086 
	C25.976561,216.721130 30.192064,222.283936 36.796665,226.415802 
	C41.150848,229.139816 46.042656,231.273697 49.706264,234.721191 
	C51.598907,236.502197 52.451996,240.897888 51.688171,243.499634 
	C51.108765,245.473236 47.362446,246.843094 44.771358,247.776978 
	C43.233639,248.331207 41.131027,247.769913 39.408714,247.272644 
	C34.847309,245.955719 30.354631,244.400757 25.200859,242.735764 
	C25.200859,246.083847 25.495949,249.054306 25.127977,251.940216 
	C24.641386,255.756439 26.426403,257.703552 29.790909,258.166779 
	C35.825275,258.997589 41.916847,260.062164 47.967762,259.966766 
	C56.407207,259.833649 62.878216,255.826218 66.746445,247.110718 
M246.603149,256.976746 
	C246.946625,252.976898 247.290115,248.977036 247.695175,244.260101 
	C244.326645,245.168182 242.008682,246.163437 239.624710,246.360626 
	C234.229034,246.806961 228.708206,247.529724 223.423492,246.799606 
	C220.635666,246.414459 217.369949,243.740860 215.824677,241.189270 
	C211.227219,233.597809 210.919647,225.003571 212.618210,216.531265 
	C215.208740,203.610062 224.166229,198.629700 236.724121,202.687668 
	C239.493011,203.582413 242.198242,204.674088 245.191879,205.769913 
	C246.854996,201.541565 248.351044,197.738022 250.096512,193.300293 
	C245.417603,191.882874 241.256256,190.078857 236.918976,189.401657 
	C217.322250,186.341888 201.962326,193.496368 197.302124,213.993057 
	C195.316879,222.724609 196.146698,231.446747 198.492691,240.120987 
	C201.517624,251.305725 208.797974,257.872528 219.901062,259.784058 
	C228.648727,261.290039 237.479477,260.819275 246.603149,256.976746 
M889.773682,189.554718 
	C870.734680,185.650345 854.513062,195.495193 852.327576,213.331863 
	C851.316711,221.581909 852.158691,230.198853 853.197876,238.519882 
	C854.186035,246.432678 858.598572,252.443512 865.968384,256.437927 
	C878.546326,263.255188 901.331848,262.304443 908.303040,243.683594 
	C912.729858,231.858978 913.437073,219.694931 909.203003,207.546204 
	C906.032959,198.450378 900.081787,192.230576 889.773682,189.554718 
M574.343140,188.897141 
	C560.666748,190.974701 552.488342,198.775879 549.953003,212.200500 
	C548.231262,221.317047 548.557373,230.320648 550.775085,239.378922 
	C553.520630,250.593384 560.351929,257.836121 571.544312,259.647705 
	C583.713440,261.617432 595.328186,259.747101 603.076904,248.608734 
	C609.310181,239.648758 609.457642,229.237762 609.033936,218.834305 
	C608.237000,199.269455 594.708069,187.317825 574.343140,188.897141 
M159.563538,171.987808 
	C162.496536,171.987808 165.429550,171.987808 168.904755,171.987808 
	C168.904755,152.620682 168.904755,133.919876 168.904755,114.548546 
	C175.162750,114.548546 180.866821,114.548546 186.517868,114.548546 
	C186.517868,110.097038 186.517868,106.329559 186.517868,102.291176 
	C169.855515,102.291176 153.479996,102.291176 137.049179,102.291176 
	C137.049179,106.516159 137.049179,110.533661 137.049179,115.085846 
	C142.890427,115.085846 148.278931,115.085846 153.976715,115.085846 
	C153.976715,134.215485 153.976715,152.801453 153.976715,171.707809 
	C155.727158,171.813766 157.168243,171.901016 159.563538,171.987808 
M756.717468,102.016205 
	C755.129211,102.103928 753.541016,102.191650 751.859131,102.284538 
	C751.859131,125.659943 751.859131,148.591919 751.859131,171.753937 
	C765.370544,171.753937 778.620361,171.753937 791.951050,171.753937 
	C791.951050,167.499161 791.951050,163.476303 791.951050,159.006897 
	C783.743225,159.006897 775.983032,159.006897 767.659790,159.006897 
	C767.659790,139.830704 767.659790,121.104988 767.659790,102.016418 
	C763.946533,102.016418 760.802734,102.016418 756.717468,102.016205 
M494.082184,107.526848 
	C494.082184,105.778481 494.082184,104.030113 494.082184,102.432968 
	C476.968353,102.432968 460.607727,102.432968 444.452087,102.432968 
	C444.452087,106.740700 444.452087,110.624527 444.452087,114.970993 
	C450.125244,114.970993 455.372955,114.970993 461.127075,114.970993 
	C461.127075,134.146362 461.127075,152.849609 461.127075,171.630859 
	C466.374786,171.630859 471.085327,171.630859 476.267212,171.630859 
	C476.267212,152.560745 476.267212,133.838760 476.267212,114.712112 
	C482.338043,114.712112 487.935852,114.712112 494.082214,114.712112 
	C494.082214,112.369148 494.082214,110.420235 494.082184,107.526848 
M974.500000,102.018120 
	C966.736084,102.018120 958.972107,102.018120 951.267944,102.018120 
	C951.267944,106.612320 951.267944,110.517296 951.267944,114.902313 
	C957.187500,114.902313 962.769592,114.902313 968.895813,114.902313 
	C968.895813,134.116806 968.895813,152.845886 968.895813,171.628632 
	C974.183899,171.628632 978.901550,171.628632 984.163940,171.628632 
	C984.163940,152.544937 984.163940,133.810471 984.163940,114.629837 
	C989.975769,114.629837 995.242493,114.629837 1000.677979,114.629837 
	C1000.677979,110.271988 1000.677979,106.376343 1000.677979,102.018120 
	C992.085571,102.018120 983.792786,102.018120 974.500000,102.018120 
M49.353966,102.014816 
	C40.938332,102.014816 32.522694,102.014816 24.234543,102.014816 
	C23.425476,107.630638 23.119720,112.106750 29.579821,113.513847 
	C30.690348,113.755737 32.059227,116.129333 32.080452,117.536736 
	C32.273930,130.365341 32.288158,143.199615 32.073277,156.027512 
	C32.047638,157.557953 30.703085,159.709320 29.350847,160.464661 
	C23.047056,163.985779 22.908613,163.985672 24.593908,171.670319 
	C34.832653,171.670319 45.074322,171.670319 55.381500,171.670319 
	C56.446678,166.479721 56.484554,162.323883 50.336918,160.537094 
	C48.925629,160.126907 47.259655,157.539551 47.227047,155.923553 
	C46.971592,143.263840 46.990528,130.595016 47.209827,117.933945 
	C47.236301,116.405655 48.602707,114.271362 49.961773,113.501976 
	C56.589485,109.749939 56.663250,109.880241 55.072941,102.014618 
	C53.554806,102.014618 51.930958,102.014618 49.353966,102.014816 
M506.920959,146.479706 
	C506.920776,149.645462 507.224182,152.853149 506.795288,155.959702 
	C506.573090,157.569290 505.413605,159.630447 504.058990,160.403198 
	C497.874756,163.931030 497.624390,164.186386 499.268463,171.742096 
	C509.360413,171.742096 519.465393,171.742096 529.676514,171.742096 
	C530.690796,166.502655 530.964294,162.014420 524.472961,160.303436 
	C523.400940,160.020889 522.106689,157.955704 522.090088,156.698792 
	C521.916077,143.538162 521.918030,130.373581 522.083435,117.212746 
	C522.099304,115.950279 523.333862,113.846024 524.362122,113.592957 
	C530.873901,111.990273 530.709229,107.541458 529.720398,102.372269 
	C519.385193,102.372269 509.187561,102.372269 499.080963,102.372269 
	C497.764008,107.743408 498.187561,111.784538 504.163544,113.607986 
	C505.412292,113.989021 506.757751,116.456604 506.799103,117.996490 
	C507.045044,127.153938 506.920807,136.321335 506.920959,146.479706 
M427.420105,219.986679 
	C424.288452,211.404007 421.058899,202.855133 418.077240,194.220673 
	C417.006012,191.118500 415.911499,189.178802 411.955505,189.187622 
	C408.051147,189.196350 407.331451,191.463303 406.317474,194.169968 
	C398.639587,214.664993 390.910034,235.140656 383.229187,255.634567 
	C382.860870,256.617340 382.799316,257.715088 382.588898,258.789917 
	C392.096466,259.705719 392.109619,259.710297 394.970886,251.475113 
	C396.225006,247.865677 397.597321,244.281738 398.566742,240.594406 
	C399.225952,238.086990 400.330261,237.020126 403.018188,237.093201 
	C409.173523,237.260544 415.347229,236.952942 421.488556,237.290939 
	C422.968597,237.372391 425.038452,238.914856 425.648560,240.306488 
	C427.372437,244.238693 428.431305,248.457977 429.839905,252.533844 
	C432.463348,260.124939 433.595947,260.653320 441.698059,258.314911 
	C437.054504,245.773209 432.410492,233.230286 427.420105,219.986679 
M753.989197,257.854065 
	C757.200989,258.416260 760.412720,258.978455 764.635010,259.717560 
	C763.645264,256.715851 763.160461,254.989685 762.513428,253.326675 
	C759.395325,245.312393 756.127319,237.354874 753.112000,229.302505 
	C748.623352,217.315643 744.212952,205.297394 739.971985,193.221313 
	C738.901489,190.173172 737.245728,189.268890 734.122803,189.249939 
	C730.986023,189.230911 729.859436,190.578079 728.893494,193.293015 
	C723.656799,208.011642 718.171326,222.641541 712.879761,237.340942 
	C710.363159,244.331573 708.086487,251.408554 705.681641,258.503906 
	C714.067993,260.029755 714.217346,259.973267 716.648682,253.044067 
	C718.133545,248.812317 719.303467,244.451508 721.083679,240.352234 
	C721.687378,238.962051 723.683411,237.363251 725.118408,237.287643 
	C731.431946,236.955124 737.780701,236.979980 744.097595,237.279144 
	C745.413147,237.341431 747.299072,238.862000 747.806458,240.149994 
	C749.994690,245.704926 751.767944,251.423340 753.989197,257.854065 
M258.500031,404.868317 
	C181.120804,404.868317 103.741577,404.868317 26.350609,404.868317 
	C25.842682,410.431610 29.567717,408.803436 31.708818,408.804901 
	C136.800446,408.877136 241.892120,408.867920 346.983795,408.863678 
	C348.314270,408.863617 349.715973,409.051453 350.946228,408.686127 
	C351.596863,408.492920 352.216553,407.333740 352.332977,406.535248 
	C352.399902,406.076080 351.503021,405.111847 350.917786,404.996826 
	C349.632294,404.744232 348.269104,404.870758 346.937653,404.870605 
	C317.791779,404.867523 288.645935,404.868286 258.500031,404.868317 
M209.500000,357.969910 
	C150.534607,357.969910 91.569206,357.969879 32.603809,357.970001 
	C31.437828,357.970001 30.203249,357.732178 29.125324,358.040771 
	C28.065638,358.344116 27.164949,359.202881 26.194487,359.817902 
	C27.210127,360.554474 28.151928,361.449951 29.268694,361.968933 
	C29.953939,362.287384 30.907087,362.030060 31.739931,362.030090 
	C136.844864,362.030426 241.949814,362.030762 347.054749,362.030060 
	C348.220642,362.030060 349.448730,362.237885 350.530762,361.933167 
	C351.265289,361.726288 352.410950,360.594360 352.291779,360.222168 
	C352.017242,359.364594 351.201721,358.318878 350.390045,358.078979 
	C349.163147,357.716309 347.752655,357.970093 346.420166,357.970062 
	C301.113434,357.969391 255.806717,357.969727 209.500000,357.969910 
M210.500000,385.030090 
	C255.807205,385.030212 301.114410,385.030457 346.421600,385.029724 
	C347.754089,385.029694 349.164490,385.282898 350.391541,384.920380 
	C351.204590,384.680237 352.021423,383.637054 352.298706,382.779449 
	C352.418396,382.409302 351.271057,381.274261 350.535614,381.066772 
	C349.453857,380.761597 348.225555,380.969818 347.059662,380.969788 
	C241.953491,380.969086 136.847321,380.969299 31.741142,380.970459 
	C30.575224,380.970459 29.309843,380.705627 28.274666,381.076904 
	C27.437922,381.376953 26.634466,382.361542 26.319630,383.225861 
	C26.198404,383.558624 27.385180,384.755127 28.123199,384.927399 
	C29.388535,385.222809 30.769619,385.029175 32.102104,385.029175 
	C91.234734,385.030273 150.367371,385.030090 210.500000,385.030090 
M536.232788,249.455734 
	C540.894836,236.351440 537.167114,227.496796 524.668457,221.862442 
	C520.431335,219.952362 516.079102,218.217209 512.073975,215.894440 
	C507.634552,213.319794 505.862793,208.413986 507.327545,203.837936 
	C508.847900,199.088242 512.549011,196.833878 517.270264,197.114517 
	C522.662659,197.435059 528.010803,198.499847 533.986511,199.325241 
	C534.735107,197.589905 535.746948,195.244537 536.833679,192.725433 
	C529.089661,189.005478 521.383545,187.985107 513.562439,189.243912 
	C504.686127,190.672607 499.459259,196.085037 498.193115,204.054764 
	C496.936554,211.964478 500.642975,219.616913 507.990173,223.782578 
	C510.872101,225.416580 514.032837,226.550735 516.986633,228.068344 
	C519.928772,229.579956 522.948120,231.040756 525.615234,232.965088 
	C529.752014,235.949707 529.567444,240.520660 528.699341,244.806946 
	C527.852051,248.990509 524.587341,251.205002 520.521545,251.838242 
	C517.751770,252.269623 514.835388,252.541885 512.086914,252.156067 
	C507.206451,251.470963 502.403748,250.232101 497.567566,249.224716 
	C496.214874,257.107635 496.453827,257.846130 503.701843,259.104065 
	C508.407135,259.920715 513.281799,260.110229 518.070068,260.019928 
	C525.642395,259.877075 531.968628,257.030060 536.232788,249.455734 
M486.166901,248.417770 
	C490.097626,235.796066 486.435577,227.463669 474.528961,221.994858 
	C470.452789,220.122665 466.201202,218.571640 462.304993,216.383728 
	C457.376831,213.616333 455.402405,208.583923 457.013153,203.629761 
	C458.649750,198.596069 462.737885,196.729263 467.567780,197.075348 
	C472.789307,197.449539 477.958740,198.551193 483.576233,199.399780 
	C484.371460,197.476364 485.298798,195.233307 486.362946,192.659439 
	C477.113678,188.723709 468.129120,187.262878 458.871643,190.438034 
	C452.750122,192.537628 448.738953,196.843765 447.977936,203.474777 
	C446.777863,213.931793 450.212128,220.245911 459.594849,225.003738 
	C464.037109,227.256317 468.697479,229.083633 473.109772,231.389267 
	C477.838776,233.860382 479.324280,238.157318 478.541351,243.199844 
	C477.750702,248.291885 474.522247,251.272324 469.118988,251.950256 
	C466.499268,252.278946 463.765076,252.479599 461.176453,252.099655 
	C456.535492,251.418442 451.965363,250.254730 447.347107,249.288788 
	C446.446045,257.714844 446.399445,257.985291 454.254944,259.339020 
	C458.796173,260.121582 463.533844,260.220001 468.152435,259.995667 
	C475.921234,259.618317 482.289856,256.496613 486.166901,248.417770 
M661.573914,198.749344 
	C666.616882,200.630524 667.769226,199.683960 668.869263,192.225998 
	C665.477722,191.256271 662.064636,189.838654 658.522278,189.341385 
	C639.833740,186.718002 624.743164,193.395370 620.232544,213.693787 
	C618.245483,222.636078 619.116882,231.513016 621.480713,240.326874 
	C624.298706,250.833725 630.896545,257.724213 641.513123,259.470306 
	C647.788696,260.502472 654.475342,260.076080 660.839478,259.247589 
	C667.728210,258.350830 667.884094,257.442932 666.407471,250.259232 
	C661.841675,250.945389 657.295776,251.897202 652.703003,252.265747 
	C641.333923,253.178070 634.179260,248.549866 630.988770,237.603455 
	C629.574585,232.751465 629.063110,227.480087 629.064636,222.399368 
	C629.070496,202.779709 642.014587,193.140961 661.573914,198.749344 
M276.500183,369.624298 
	C195.209167,369.624298 113.918167,369.624054 32.627159,369.625793 
	C31.128174,369.625824 29.589651,369.453766 28.146847,369.744934 
	C27.423054,369.891022 26.873556,370.900726 26.245247,371.519897 
	C26.886683,372.126221 27.437998,373.048889 28.191050,373.263367 
	C29.272646,373.571472 30.501213,373.374420 31.667044,373.374451 
	C136.778915,373.376129 241.890778,373.376465 347.002655,373.371521 
	C348.333069,373.371460 349.701111,373.472076 350.976257,373.187744 
	C351.525970,373.065216 352.236694,372.075073 352.228943,371.487610 
	C352.221130,370.895935 351.497345,369.930542 350.937531,369.806946 
	C349.661713,369.525146 348.294220,369.627960 346.963989,369.627625 
	C323.809387,369.621704 300.654816,369.623810 276.500183,369.624298 
M279.499817,396.375702 
	C302.321350,396.376648 325.143036,396.411743 347.963989,396.298645 
	C349.423523,396.291443 350.877350,395.136688 352.333832,394.515808 
	C350.889587,393.885193 349.445770,392.703613 348.001007,392.702454 
	C242.222519,392.616394 136.443970,392.616394 30.665489,392.701080 
	C29.190908,392.702240 27.717253,393.862244 26.243155,394.481384 
	C27.704824,395.112671 29.121643,395.911621 30.643288,396.318695 
	C31.731516,396.609802 32.960293,396.375641 34.126354,396.375641 
	C115.584167,396.375671 197.041977,396.375763 279.499817,396.375702 
M792.141724,217.500488 
	C792.141724,211.082260 792.141724,204.664017 792.141724,197.719864 
	C799.321106,197.719864 805.719055,197.719864 812.294556,197.719864 
	C812.294556,194.923538 812.294556,192.686661 812.294556,190.278702 
	C796.095276,190.278702 780.217346,190.278702 764.296997,190.278702 
	C764.296997,192.964615 764.296997,195.316116 764.296997,198.103516 
	C770.651184,198.103516 776.577576,198.103516 783.067627,198.103516 
	C783.067627,218.575546 783.067627,238.607742 783.067627,258.748657 
	C786.361145,258.748657 789.062805,258.748657 792.141907,258.748657 
	C792.141907,245.071320 792.141907,231.785767 792.141724,217.500488 
M841.703857,190.595520 
	C833.636230,190.595520 825.568542,190.595520 817.426880,190.595520 
	C815.893433,193.888260 817.628662,195.638260 820.753479,195.853577 
	C824.733215,196.127777 825.042053,198.365173 825.018982,201.572052 
	C824.908875,216.882111 824.892029,232.194107 825.029419,247.503723 
	C825.060120,250.929382 824.596375,253.226624 820.516479,253.491486 
	C817.085449,253.714264 816.074890,255.674820 817.614197,258.859497 
	C825.692993,258.859497 833.614685,258.859497 841.479736,258.859497 
	C843.077820,255.096817 841.243103,253.639633 838.132568,253.341980 
	C835.105591,253.052322 833.927368,251.855728 833.959351,248.625107 
	C834.117432,232.650146 834.108398,216.672058 833.965759,200.696793 
	C833.937317,197.509369 835.051941,196.205338 838.133240,195.899078 
	C840.607056,195.653168 842.693604,194.634308 841.703857,190.595520 
M694.045166,196.746826 
	C701.168518,194.711792 701.168518,194.711792 700.223206,190.208069 
	C692.308899,190.208069 684.369019,190.208069 676.463562,190.208069 
	C675.120911,193.357086 675.912292,195.495392 679.148376,195.737854 
	C683.484253,196.062698 683.966125,198.467773 683.925903,202.125061 
	C683.761047,217.121063 683.743713,232.121353 683.936096,247.116684 
	C683.983398,250.807816 683.443359,253.255920 679.208557,253.546738 
	C675.775696,253.782486 675.247925,255.795471 676.377625,258.786926 
	C684.546936,258.786926 692.613892,258.786926 700.483337,258.786926 
	C702.112671,254.565186 699.312317,254.164505 696.720276,253.143051 
	C695.250549,252.563828 693.140015,250.907211 693.133057,249.725067 
	C693.029419,232.247955 693.230469,214.769043 694.045166,196.746826 
z"/>
<path fill="#2C2926" opacity="1.000000" stroke="none" 
	d="
M87.438690,133.675720 
	C85.480484,129.837082 83.696213,126.335106 81.911942,122.833130 
	C81.613617,122.906822 81.315300,122.980507 81.016983,123.054199 
	C81.016983,139.154266 81.016983,155.254333 81.016983,171.668243 
	C76.339905,171.668243 72.122704,171.668243 67.555313,171.668243 
	C67.555313,148.564224 67.555313,125.669769 67.555313,102.047516 
	C73.459480,102.047516 79.220406,101.865868 84.950699,102.203728 
	C86.070923,102.269783 87.385025,104.188072 88.080269,105.526970 
	C95.122414,119.088760 102.050171,132.709915 109.023842,146.307343 
	C109.769028,147.760315 110.602058,149.168213 112.061012,151.799332 
	C112.061012,134.624802 112.061012,118.724327 112.061012,102.417007 
	C116.818420,102.417007 121.384201,102.417007 126.384499,102.417007 
	C126.384499,125.302155 126.384499,148.323837 126.384499,171.969498 
	C120.385521,171.969498 114.449577,172.050171 108.520737,171.881500 
	C107.643135,171.856567 106.443428,170.837662 105.993095,169.967819 
	C99.804626,158.014603 93.721558,146.006805 87.438690,133.675720 
z"/>
<path fill="#292623" opacity="1.000000" stroke="none" 
	d="
M361.220947,102.016251 
	C364.507172,102.016014 367.328857,102.016014 370.564606,102.016014 
	C370.564606,125.264191 370.564606,148.279907 370.564606,171.965698 
	C365.005554,171.965698 359.401093,172.142990 353.824829,171.824966 
	C352.624298,171.756485 351.124146,170.113953 350.443207,168.834076 
	C344.589783,157.832138 338.946075,146.718811 333.123230,135.700333 
	C330.751434,131.212204 328.092316,126.875931 325.060028,121.592651 
	C325.060028,138.820847 325.060028,155.090820 325.060028,171.668533 
	C320.632446,171.668533 316.548950,171.668533 312.031036,171.668533 
	C312.031036,148.723206 312.031036,125.714493 312.031036,102.035805 
	C317.569580,102.035805 323.211029,101.569092 328.699249,102.281960 
	C330.694458,102.541130 332.888702,105.313530 334.027344,107.452759 
	C340.504364,119.621620 346.685364,131.947952 352.978394,144.214905 
	C353.936584,146.082733 354.953827,147.920273 357.003479,149.652679 
	C357.197876,148.501450 357.567383,147.349075 357.559937,146.199127 
	C357.473938,132.890976 357.363373,119.582718 357.175171,106.275681 
	C357.138336,103.672569 357.244965,101.494598 361.220947,102.016251 
M356.820404,151.113724 
	C357.014343,151.250549 357.208282,151.387375 357.402222,151.524200 
	C357.480957,151.134064 357.559692,150.743912 357.638397,150.353775 
	C357.283203,150.378677 356.927979,150.403595 356.820404,151.113724 
z"/>
<path fill="#272522" opacity="1.000000" stroke="none" 
	d="
M612.924316,124.000084 
	C612.924316,116.540497 612.924316,109.580872 612.924316,102.042244 
	C618.912598,102.042244 624.519409,101.899124 630.106262,102.169426 
	C631.156616,102.220245 632.469482,103.738892 633.080688,104.888763 
	C638.383728,114.866150 643.461853,124.963524 648.800842,134.921234 
	C651.747253,140.416718 655.065125,145.713028 658.667603,151.872025 
	C658.667603,134.923309 658.667603,118.796875 658.667603,102.348434 
	C663.085083,102.348434 667.164551,102.348434 671.663940,102.348434 
	C671.663940,125.234848 671.663940,148.261703 671.663940,171.963440 
	C666.194275,171.963440 660.370300,172.895172 655.099182,171.591507 
	C652.232239,170.882446 649.727295,166.681381 648.055298,163.527252 
	C641.445496,151.058441 635.234802,138.378174 628.859131,125.784935 
	C628.281250,124.643311 627.581909,123.563156 626.320129,121.387344 
	C626.320129,138.862244 626.320129,155.151871 626.320129,171.704987 
	C621.838013,171.704987 617.750549,171.704987 612.924316,171.704987 
	C612.924316,155.976059 612.924316,140.238052 612.924316,124.000084 
z"/>
<path fill="#292724" opacity="1.000000" stroke="none" 
	d="
M540.547241,119.690437 
	C545.549133,108.921379 553.507935,102.410530 565.002747,101.212616 
	C576.813049,99.981827 587.506592,102.263908 595.002502,112.816902 
	C604.667603,126.423737 604.252869,141.464615 598.374634,155.508484 
	C589.869446,175.828430 560.672729,179.074081 546.071533,162.617462 
	C537.348755,152.786301 537.614807,141.122101 538.415833,129.284012 
	C538.626160,126.175179 539.704102,123.125053 540.547241,119.690437 
M579.948608,117.530937 
	C571.654541,110.826591 560.848755,112.757156 557.128174,122.124855 
	C553.322693,131.706146 553.447388,141.674957 557.028870,151.369492 
	C559.225708,157.315826 563.893677,160.109268 570.266846,160.029144 
	C576.476013,159.951080 581.058044,157.016907 582.871155,151.247833 
	C586.410339,139.986786 587.103149,128.707245 579.948608,117.530937 
z"/>
<path fill="#292623" opacity="1.000000" stroke="none" 
	d="
M289.809326,149.134293 
	C294.470886,156.599319 298.932526,163.760956 304.042816,171.963791 
	C298.263733,171.963791 293.544586,172.093704 288.843597,171.859650 
	C287.843445,171.809845 286.615082,170.621323 285.992126,169.639877 
	C281.729980,162.924744 277.397980,156.238525 273.519714,149.301910 
	C271.724884,146.091736 269.720215,145.001572 265.790466,146.428253 
	C265.790466,154.622238 265.790466,163.036453 265.790466,171.708252 
	C260.621796,171.708252 256.018921,171.708252 251.006760,171.708252 
	C251.006760,148.671783 251.006760,125.630005 251.006760,101.539070 
	C261.331665,102.096840 271.699371,101.790405 281.752625,103.421837 
	C294.009064,105.410805 300.117004,118.830109 294.784851,130.775528 
	C292.899597,134.998962 289.569977,138.577667 286.285187,143.342194 
	C286.917633,144.386398 288.263519,146.608658 289.809326,149.134293 
M277.041077,116.305359 
	C273.486298,115.501625 269.931549,114.697891 266.058594,113.822220 
	C266.058594,120.620605 266.058594,126.182808 266.058594,131.697159 
	C273.325989,132.803116 279.356018,130.921249 280.544922,126.745293 
	C281.585175,123.091370 282.122559,119.079330 277.041077,116.305359 
z"/>
<path fill="#2A2724" opacity="1.000000" stroke="none" 
	d="
M873.240662,164.283997 
	C867.502014,169.077805 860.921387,170.976746 854.087280,171.377243 
	C846.020935,171.849976 837.905640,171.488205 829.505249,171.488205 
	C829.505249,148.601715 829.505249,125.724174 829.505249,102.063683 
	C842.023254,102.420258 854.714661,100.103523 866.727295,105.232300 
	C876.989990,109.613968 881.924622,118.178162 883.225281,128.995956 
	C884.788513,141.997543 883.596497,154.261230 873.240662,164.283997 
M863.451111,119.034866 
	C857.844177,114.863388 851.621155,113.577202 844.609375,114.775551 
	C844.609375,129.593369 844.609375,144.132019 844.609375,158.621582 
	C854.289246,160.404892 863.151550,157.355331 865.826721,150.543671 
	C869.933350,140.087204 870.187805,129.556412 863.451111,119.034866 
z"/>
<path fill="#282623" opacity="1.000000" stroke="none" 
	d="
M166.364838,189.177582 
	C167.476166,189.590271 168.574234,189.846985 168.771622,190.416077 
	C176.621826,213.049698 184.390335,235.711639 192.518372,259.386292 
	C187.085052,259.386292 182.972763,259.601105 178.910294,259.246002 
	C177.795990,259.148560 176.405792,257.527191 175.874496,256.290527 
	C174.057724,252.061813 172.566803,247.693100 170.914490,243.278717 
	C163.244080,243.278717 155.801620,243.278717 148.129837,243.278717 
	C146.815155,247.644699 145.665665,251.974960 144.152557,256.174225 
	C143.699356,257.431946 142.303833,259.140564 141.214584,259.237854 
	C137.140015,259.601746 133.013443,259.383392 128.200989,259.383392 
	C130.877014,250.653381 133.271774,242.616058 135.806122,234.623001 
	C140.168564,220.864212 144.706406,207.160324 148.965530,193.370041 
	C149.968338,190.123108 151.473618,188.772232 154.953964,189.089737 
	C158.585297,189.421005 162.270081,189.165985 166.364838,189.177582 
M164.954742,229.696686 
	C165.559265,228.694656 166.871979,227.498947 166.659058,226.720490 
	C164.461014,218.683716 162.016541,210.714325 159.450256,202.086014 
	C156.802444,211.493118 154.346069,220.220001 151.676422,229.704651 
	C156.218597,229.704651 160.140930,229.704651 164.954742,229.696686 
z"/>
<path fill="#292623" opacity="1.000000" stroke="none" 
	d="
M727.020752,118.915642 
	C732.616272,136.665527 738.127869,154.027847 743.824890,171.974442 
	C739.131409,171.974442 734.985962,172.187515 730.889343,171.833878 
	C729.779602,171.738083 728.355896,170.109268 727.872437,168.872787 
	C726.252502,164.729919 726.184509,158.415070 723.298462,156.721542 
	C719.541260,154.516769 713.657227,155.853378 708.687378,155.816330 
	C699.855408,155.750488 699.925720,155.818970 697.438416,164.110931 
	C694.540405,173.772263 696.877380,171.720184 686.937378,171.973267 
	C684.795288,172.027817 682.650635,171.981232 679.898254,171.981232 
	C682.550598,163.743591 685.054138,156.036896 687.513123,148.316010 
	C691.994751,134.244415 696.533813,120.190041 700.847839,106.067047 
	C701.753967,103.100510 702.898071,101.638176 706.261902,101.841026 
	C711.222534,102.140160 716.214600,101.918251 721.428223,101.918251 
	C723.309082,107.589745 725.122864,113.058914 727.020752,118.915642 
M714.370667,142.957153 
	C716.170776,142.957153 717.970825,142.957153 720.403259,142.957153 
	C717.725525,133.272919 715.203552,124.152046 712.383911,113.954742 
	C709.661255,124.166061 707.221130,133.317673 704.650879,142.957489 
	C708.148621,142.957489 710.792053,142.957489 714.370667,142.957153 
z"/>
<path fill="#292724" opacity="1.000000" stroke="none" 
	d="
M1004.052673,163.986145 
	C1008.729004,149.190613 1013.229858,134.757462 1017.942932,120.393913 
	C1019.741333,114.913116 1021.915039,109.544388 1024.184326,104.238647 
	C1024.629883,103.197090 1026.267944,102.621307 1027.427490,101.955048 
	C1027.803833,101.738770 1028.408081,101.924828 1028.907959,101.917030 
	C1042.932739,101.698242 1043.001587,101.675713 1047.308105,114.960831 
	C1052.994263,132.502213 1058.563477,150.081528 1064.166016,167.649933 
	C1064.558472,168.880722 1064.811279,170.156036 1065.211914,171.738617 
	C1060.188477,171.738617 1055.572510,171.738617 1050.241455,171.738617 
	C1049.180664,168.082764 1047.889648,164.201813 1046.956787,160.236588 
	C1046.220093,157.104584 1045.090698,155.374863 1041.331421,155.694183 
	C1036.367432,156.115860 1031.331665,155.976807 1026.344360,155.728821 
	C1023.594177,155.592087 1022.064575,156.451599 1021.181030,159.036209 
	C1019.740540,163.249603 1018.112366,167.398819 1016.497192,171.753387 
	C1011.804626,171.753387 1007.025757,171.753387 1001.628357,171.753387 
	C1002.486511,169.040405 1003.224121,166.708328 1004.052673,163.986145 
M1034.405762,142.957245 
	C1036.814575,142.957245 1039.223267,142.957245 1042.097412,142.957245 
	C1039.435181,133.453537 1036.979736,124.687653 1034.524170,115.921776 
	C1034.162964,115.947105 1033.801758,115.972435 1033.440674,115.997772 
	C1031.088135,124.844551 1028.735596,133.691330 1026.271729,142.957214 
	C1029.149048,142.957214 1031.303589,142.957214 1034.405762,142.957245 
z"/>
<path fill="#292724" opacity="1.000000" stroke="none" 
	d="
M430.429077,171.981674 
	C428.723633,170.789291 426.916321,169.822876 426.320007,168.362106 
	C424.707672,164.412338 424.774384,158.682236 421.984100,156.613480 
	C419.143890,154.507721 413.692291,155.840118 409.383331,155.816360 
	C399.556000,155.762177 399.571014,155.803604 396.816986,165.513718 
	C396.229614,167.584625 395.487183,169.611557 394.778412,171.773972 
	C389.525055,171.773972 384.411469,171.773972 378.723206,171.773972 
	C380.219727,167.032166 381.540192,162.616806 383.004364,158.249649 
	C388.798798,140.966431 394.755890,123.736336 400.361725,106.392509 
	C401.482269,102.925682 402.950928,101.781548 406.587433,101.825272 
	C420.197296,101.988892 420.220978,101.843201 424.431183,115.012375 
	C427.970734,126.083870 431.333862,137.213287 435.001434,148.241791 
	C437.242615,154.981079 439.931213,161.570938 442.367676,168.246597 
	C442.749390,169.292480 442.858307,170.437927 443.188477,171.982178 
	C438.837555,171.982178 434.858521,171.982178 430.429077,171.981674 
M404.084015,139.933289 
	C403.578003,141.763992 403.535370,143.092102 406.162506,142.993149 
	C410.287048,142.837814 414.421753,142.951920 419.145844,142.951920 
	C416.780212,134.519684 414.545929,126.555580 412.311615,118.591476 
	C411.773193,118.566658 411.234772,118.541840 410.696350,118.517021 
	C407.200348,124.884758 406.518311,132.256592 404.084015,139.933289 
z"/>
<path fill="#292724" opacity="1.000000" stroke="none" 
	d="
M924.837463,155.798737 
	C920.033020,155.798553 915.686768,156.044022 911.382996,155.722076 
	C907.808411,155.454681 906.582581,156.939789 905.660889,160.211609 
	C902.004761,173.190643 901.878174,173.154984 887.206848,171.588333 
	C888.820007,166.496475 890.406555,161.491821 891.991150,156.486557 
	C897.349365,139.560608 902.755737,122.649544 908.015930,105.693153 
	C908.871948,102.933929 910.052002,101.653831 913.169006,101.839294 
	C918.135742,102.134811 923.132935,101.918266 928.692505,101.918266 
	C936.060425,125.112000 943.415588,148.265564 950.948608,171.979187 
	C946.279297,171.979187 942.142395,172.149384 938.037415,171.863007 
	C936.972473,171.788712 935.526184,170.479767 935.091919,169.401016 
	C934.045654,166.801971 933.278809,164.041550 932.793213,161.276993 
	C932.026672,156.913177 929.833557,154.861526 924.837463,155.798737 
M926.143372,138.353622 
	C924.030579,130.557938 921.917786,122.762253 919.624695,114.301323 
	C916.478577,124.207260 913.587952,133.308548 910.592346,142.740662 
	C916.670105,142.740662 921.759644,142.740662 927.160706,142.740662 
	C926.872009,141.369904 926.640320,140.269943 926.143372,138.353622 
z"/>
<path fill="#282623" opacity="1.000000" stroke="none" 
	d="
M217.138702,128.919800 
	C223.245117,128.919983 228.869888,128.919983 234.783188,128.919983 
	C234.783188,133.415390 234.783188,137.504486 234.783188,142.174652 
	C227.123230,142.174652 219.407166,142.174652 211.389526,142.174652 
	C211.389526,147.988556 211.389526,153.234604 211.389526,159.155975 
	C219.776993,159.155975 228.144897,159.155975 236.735489,159.155975 
	C236.735489,163.598907 236.735489,167.375397 236.735489,171.567032 
	C223.387436,171.567032 210.028931,171.567032 196.342407,171.567032 
	C196.342407,148.655243 196.342407,125.758141 196.342407,102.439613 
	C209.605774,102.439613 222.962952,102.439613 236.653275,102.439613 
	C236.653275,106.174545 236.653275,109.921799 236.653275,114.298317 
	C228.319351,114.298317 219.934372,114.298317 211.323944,114.298317 
	C211.323944,119.353317 211.323944,123.790085 211.323944,128.919632 
	C213.138458,128.919632 214.897766,128.919632 217.138702,128.919800 
z"/>
<path fill="#282623" opacity="1.000000" stroke="none" 
	d="
M291.870300,228.978363 
	C286.252563,228.978363 281.118256,228.978363 275.692444,228.978363 
	C275.692444,235.035446 275.692444,240.626282 275.692444,246.764832 
	C283.891296,246.764832 292.123474,246.764832 300.712097,246.764832 
	C300.712097,251.178925 300.712097,255.057785 300.712097,259.144501 
	C287.347260,259.144501 274.083740,259.144501 260.512024,259.144501 
	C260.512024,236.153534 260.512024,213.413696 260.512024,190.296631 
	C273.784698,190.296631 287.024292,190.296631 300.673157,190.296631 
	C300.673157,193.837708 300.673157,197.567688 300.673157,201.862671 
	C292.646240,201.862671 284.407196,201.862671 275.787415,201.862671 
	C275.787415,206.926529 275.787415,211.438324 275.787415,216.465805 
	C283.565094,216.465805 291.149323,216.465805 299.060974,216.465805 
	C299.060974,220.859695 299.060974,224.747833 299.060974,228.978363 
	C296.653778,228.978363 294.503784,228.978363 291.870300,228.978363 
z"/>
<path fill="#282623" opacity="1.000000" stroke="none" 
	d="
M121.802826,225.749115 
	C114.247574,232.676102 105.449486,234.887421 95.352921,234.076233 
	C95.352921,242.704330 95.352921,250.794876 95.352921,259.097473 
	C90.148010,259.097473 85.415901,259.097473 80.444992,259.097473 
	C80.444992,236.062363 80.444992,213.325653 80.444992,190.325745 
	C89.697517,190.325745 98.950035,189.194351 107.821114,190.553146 
	C128.480423,193.717606 129.798111,212.871750 121.802826,225.749115 
M95.316902,206.765564 
	C95.316902,211.703171 95.316902,216.640762 95.316902,221.501816 
	C104.696693,222.623596 109.658859,219.491425 110.037270,212.630112 
	C110.416763,205.749008 106.289787,202.042770 98.730423,201.968185 
	C95.637161,201.937683 95.004555,203.273132 95.316902,206.765564 
z"/>
<path fill="#292724" opacity="1.000000" stroke="none" 
	d="
M329.135864,213.867615 
	C334.198059,216.776230 339.120544,219.215546 343.721863,222.157257 
	C352.602448,227.834778 355.622467,235.802383 353.084534,245.775406 
	C350.959991,254.123871 344.380188,259.560547 334.267365,260.018280 
	C328.215790,260.292175 322.069885,259.330048 316.021393,258.515228 
	C312.177368,257.997345 309.796478,255.900757 310.521057,251.337967 
	C310.950470,248.633896 310.599670,245.805923 310.599670,242.710037 
	C315.613647,244.351974 319.962311,245.792725 324.324463,247.191345 
	C325.269104,247.494217 326.251556,247.741821 327.234802,247.851486 
	C333.653412,248.567505 337.711975,246.702103 338.825409,242.578827 
	C340.006165,238.206192 337.346405,234.398712 331.586700,231.562775 
	C327.717896,229.657867 323.890930,227.580872 320.323059,225.169754 
	C312.438690,219.841568 309.469482,211.010376 312.178101,201.938828 
	C314.534515,194.046906 321.957886,188.979294 331.386139,188.826401 
	C340.812134,188.673553 346.361176,189.946594 352.986542,193.834976 
	C352.921997,194.407364 352.987152,195.104385 352.754333,195.681152 
	C351.517639,198.744705 350.206238,201.778122 348.920502,204.822372 
	C344.099731,203.647629 339.549744,202.218246 334.890137,201.515549 
	C331.756744,201.042999 328.546875,201.679077 326.817444,205.121384 
	C325.081482,208.576691 326.517395,211.187759 329.135864,213.867615 
z"/>
<path fill="#0AA0D6" opacity="1.000000" stroke="none" 
	d="
M980.028809,234.999985 
	C980.028809,243.130203 980.028809,250.760437 980.028809,258.285248 
	C970.658325,260.626740 968.840210,259.929291 964.279358,252.106277 
	C955.660767,237.322952 947.105225,222.502884 938.506836,207.707733 
	C937.702332,206.323425 936.779968,205.007629 935.560242,203.113037 
	C935.560242,222.009888 935.560242,240.167419 935.560242,258.730957 
	C933.074463,258.730957 930.541016,258.730957 927.689758,258.730957 
	C927.689758,235.903870 927.689758,213.186325 927.689758,190.516953 
	C937.212769,188.982712 937.377502,189.077454 941.908142,196.613297 
	C951.320984,212.269821 960.755920,227.913086 970.201050,243.550140 
	C970.428772,243.927231 970.883240,244.167374 971.637878,244.825241 
	C971.637878,226.432022 971.637878,208.467819 971.637878,190.241241 
	C974.385010,190.241241 976.820740,190.241241 980.028809,190.241241 
	C980.028809,205.012436 980.028809,219.756226 980.028809,234.999985 
z"/>
<path fill="#292724" opacity="1.000000" stroke="none" 
	d="
M66.535843,247.424835 
	C62.878216,255.826218 56.407207,259.833649 47.967762,259.966766 
	C41.916847,260.062164 35.825275,258.997589 29.790909,258.166779 
	C26.426403,257.703552 24.641386,255.756439 25.127977,251.940216 
	C25.495949,249.054306 25.200859,246.083847 25.200859,242.735764 
	C30.354631,244.400757 34.847309,245.955719 39.408714,247.272644 
	C41.131027,247.769913 43.233639,248.331207 44.771358,247.776978 
	C47.362446,246.843094 51.108765,245.473236 51.688171,243.499634 
	C52.451996,240.897888 51.598907,236.502197 49.706264,234.721191 
	C46.042656,231.273697 41.150848,229.139816 36.796665,226.415802 
	C30.192064,222.283936 25.976561,216.721130 26.005192,208.538086 
	C26.044748,197.231308 33.529900,188.824753 44.847137,189.026520 
	C52.470158,189.162415 60.060947,191.106171 68.382332,192.348038 
	C65.895889,197.526474 64.096687,201.273605 62.316025,204.982117 
	C58.403851,203.847672 54.805149,202.630829 51.121532,201.782959 
	C47.153522,200.869629 43.301384,201.154373 41.313702,205.437912 
	C39.632317,209.061386 41.521561,212.774628 46.220741,215.669434 
	C50.744400,218.456100 55.602341,220.789276 59.802349,223.991928 
	C66.634300,229.201538 69.899010,236.168152 67.867699,244.954803 
	C67.691025,245.719009 67.129303,246.394180 66.535843,247.424835 
z"/>
<path fill="#292623" opacity="1.000000" stroke="none" 
	d="
M246.253799,257.185120 
	C237.479477,260.819275 228.648727,261.290039 219.901062,259.784058 
	C208.797974,257.872528 201.517624,251.305725 198.492691,240.120987 
	C196.146698,231.446747 195.316879,222.724609 197.302124,213.993057 
	C201.962326,193.496368 217.322250,186.341888 236.918976,189.401657 
	C241.256256,190.078857 245.417603,191.882874 250.096512,193.300293 
	C248.351044,197.738022 246.854996,201.541565 245.191879,205.769913 
	C242.198242,204.674088 239.493011,203.582413 236.724121,202.687668 
	C224.166229,198.629700 215.208740,203.610062 212.618210,216.531265 
	C210.919647,225.003571 211.227219,233.597809 215.824677,241.189270 
	C217.369949,243.740860 220.635666,246.414459 223.423492,246.799606 
	C228.708206,247.529724 234.229034,246.806961 239.624710,246.360626 
	C242.008682,246.163437 244.326645,245.168182 247.695175,244.260101 
	C247.290115,248.977036 246.946625,252.976898 246.253799,257.185120 
z"/>
<path fill="#0CA1D6" opacity="1.000000" stroke="none" 
	d="
M890.162659,189.674500 
	C900.081787,192.230576 906.032959,198.450378 909.203003,207.546204 
	C913.437073,219.694931 912.729858,231.858978 908.303040,243.683594 
	C901.331848,262.304443 878.546326,263.255188 865.968384,256.437927 
	C858.598572,252.443512 854.186035,246.432678 853.197876,238.519882 
	C852.158691,230.198853 851.316711,221.581909 852.327576,213.331863 
	C854.513062,195.495193 870.734680,185.650345 890.162659,189.674500 
M864.174561,208.895721 
	C863.122986,214.029968 861.157837,219.183990 861.268372,224.293076 
	C861.386597,229.755447 863.139648,235.273804 864.759766,240.590759 
	C867.143860,248.414658 873.591248,252.478699 882.382141,252.352875 
	C891.086121,252.228271 898.060974,247.883392 899.600098,240.044937 
	C901.116577,232.321182 902.035339,224.262817 901.633667,216.432465 
	C901.081970,205.678925 894.725281,198.454651 886.623535,197.100769 
	C876.321106,195.379105 869.294067,198.903717 864.174561,208.895721 
z"/>
<path fill="#0BA1D6" opacity="1.000000" stroke="none" 
	d="
M574.760254,188.890442 
	C594.708069,187.317825 608.237000,199.269455 609.033936,218.834305 
	C609.457642,229.237762 609.310181,239.648758 603.076904,248.608734 
	C595.328186,259.747101 583.713440,261.617432 571.544312,259.647705 
	C560.351929,257.836121 553.520630,250.593384 550.775085,239.378922 
	C548.557373,230.320648 548.231262,221.317047 549.953003,212.200500 
	C552.488342,198.775879 560.666748,190.974701 574.760254,188.890442 
M579.417053,252.344452 
	C585.145203,252.060013 590.498718,250.507843 593.633606,245.425186 
	C601.402954,232.828796 602.435486,219.777069 595.409119,206.384735 
	C591.019165,198.017380 583.676941,196.095520 575.169495,197.076584 
	C567.162415,197.999939 562.380066,203.064972 560.164124,210.491486 
	C557.597534,219.092728 557.479736,227.822815 559.916992,236.517822 
	C563.142883,248.026794 566.755249,251.092773 579.417053,252.344452 
z"/>
<path fill="#2B2825" opacity="1.000000" stroke="none" 
	d="
M159.086441,171.988037 
	C157.168243,171.901016 155.727158,171.813766 153.976715,171.707809 
	C153.976715,152.801453 153.976715,134.215485 153.976715,115.085846 
	C148.278931,115.085846 142.890427,115.085846 137.049179,115.085846 
	C137.049179,110.533661 137.049179,106.516159 137.049179,102.291176 
	C153.479996,102.291176 169.855515,102.291176 186.517868,102.291176 
	C186.517868,106.329559 186.517868,110.097038 186.517868,114.548546 
	C180.866821,114.548546 175.162750,114.548546 168.904755,114.548546 
	C168.904755,133.919876 168.904755,152.620682 168.904755,171.987808 
	C165.429550,171.987808 162.496536,171.987808 159.086441,171.988037 
z"/>
<path fill="#2A2724" opacity="1.000000" stroke="none" 
	d="
M757.188232,102.016312 
	C760.802734,102.016418 763.946533,102.016418 767.659790,102.016418 
	C767.659790,121.104988 767.659790,139.830704 767.659790,159.006897 
	C775.983032,159.006897 783.743225,159.006897 791.951050,159.006897 
	C791.951050,163.476303 791.951050,167.499161 791.951050,171.753937 
	C778.620361,171.753937 765.370544,171.753937 751.859131,171.753937 
	C751.859131,148.591919 751.859131,125.659943 751.859131,102.284538 
	C753.541016,102.191650 755.129211,102.103928 757.188232,102.016312 
z"/>
<path fill="#292724" opacity="1.000000" stroke="none" 
	d="
M494.082214,107.999084 
	C494.082214,110.420235 494.082214,112.369148 494.082214,114.712112 
	C487.935852,114.712112 482.338043,114.712112 476.267212,114.712112 
	C476.267212,133.838760 476.267212,152.560745 476.267212,171.630859 
	C471.085327,171.630859 466.374786,171.630859 461.127075,171.630859 
	C461.127075,152.849609 461.127075,134.146362 461.127075,114.970993 
	C455.372955,114.970993 450.125244,114.970993 444.452087,114.970993 
	C444.452087,110.624527 444.452087,106.740700 444.452087,102.432968 
	C460.607727,102.432968 476.968353,102.432968 494.082184,102.432968 
	C494.082184,104.030113 494.082184,105.778481 494.082214,107.999084 
z"/>
<path fill="#292724" opacity="1.000000" stroke="none" 
	d="
M975.000000,102.018120 
	C983.792786,102.018120 992.085571,102.018120 1000.677979,102.018120 
	C1000.677979,106.376343 1000.677979,110.271988 1000.677979,114.629837 
	C995.242493,114.629837 989.975769,114.629837 984.163940,114.629837 
	C984.163940,133.810471 984.163940,152.544937 984.163940,171.628632 
	C978.901550,171.628632 974.183899,171.628632 968.895813,171.628632 
	C968.895813,152.845886 968.895813,134.116806 968.895813,114.902313 
	C962.769592,114.902313 957.187500,114.902313 951.267944,114.902313 
	C951.267944,110.517296 951.267944,106.612320 951.267944,102.018120 
	C958.972107,102.018120 966.736084,102.018120 975.000000,102.018120 
z"/>
<path fill="#2A2825" opacity="1.000000" stroke="none" 
	d="
M49.830536,102.014717 
	C51.930958,102.014618 53.554806,102.014618 55.072941,102.014618 
	C56.663250,109.880241 56.589485,109.749939 49.961773,113.501976 
	C48.602707,114.271362 47.236301,116.405655 47.209827,117.933945 
	C46.990528,130.595016 46.971592,143.263840 47.227047,155.923553 
	C47.259655,157.539551 48.925629,160.126907 50.336918,160.537094 
	C56.484554,162.323883 56.446678,166.479721 55.381500,171.670319 
	C45.074322,171.670319 34.832653,171.670319 24.593908,171.670319 
	C22.908613,163.985672 23.047056,163.985779 29.350847,160.464661 
	C30.703085,159.709320 32.047638,157.557953 32.073277,156.027512 
	C32.288158,143.199615 32.273930,130.365341 32.080452,117.536736 
	C32.059227,116.129333 30.690348,113.755737 29.579821,113.513847 
	C23.119720,112.106750 23.425476,107.630638 24.234543,102.014816 
	C32.522694,102.014816 40.938332,102.014816 49.830536,102.014717 
z"/>
<path fill="#282623" opacity="1.000000" stroke="none" 
	d="
M506.920959,145.982544 
	C506.920807,136.321335 507.045044,127.153938 506.799103,117.996490 
	C506.757751,116.456604 505.412292,113.989021 504.163544,113.607986 
	C498.187561,111.784538 497.764008,107.743408 499.080963,102.372269 
	C509.187561,102.372269 519.385193,102.372269 529.720398,102.372269 
	C530.709229,107.541458 530.873901,111.990273 524.362122,113.592957 
	C523.333862,113.846024 522.099304,115.950279 522.083435,117.212746 
	C521.918030,130.373581 521.916077,143.538162 522.090088,156.698792 
	C522.106689,157.955704 523.400940,160.020889 524.472961,160.303436 
	C530.964294,162.014420 530.690796,166.502655 529.676514,171.742096 
	C519.465393,171.742096 509.360413,171.742096 499.268463,171.742096 
	C497.624390,164.186386 497.874756,163.931030 504.058990,160.403198 
	C505.413605,159.630447 506.573090,157.569290 506.795288,155.959702 
	C507.224182,152.853149 506.920776,149.645462 506.920959,145.982544 
z"/>
<path fill="#0DA1D6" opacity="1.000000" stroke="none" 
	d="
M427.593292,220.337036 
	C432.410492,233.230286 437.054504,245.773209 441.698059,258.314911 
	C433.595947,260.653320 432.463348,260.124939 429.839905,252.533844 
	C428.431305,248.457977 427.372437,244.238693 425.648560,240.306488 
	C425.038452,238.914856 422.968597,237.372391 421.488556,237.290939 
	C415.347229,236.952942 409.173523,237.260544 403.018188,237.093201 
	C400.330261,237.020126 399.225952,238.086990 398.566742,240.594406 
	C397.597321,244.281738 396.225006,247.865677 394.970886,251.475113 
	C392.109619,259.710297 392.096466,259.705719 382.588898,258.789917 
	C382.799316,257.715088 382.860870,256.617340 383.229187,255.634567 
	C390.910034,235.140656 398.639587,214.664993 406.317474,194.169968 
	C407.331451,191.463303 408.051147,189.196350 411.955505,189.187622 
	C415.911499,189.178802 417.006012,191.118500 418.077240,194.220673 
	C421.058899,202.855133 424.288452,211.404007 427.593292,220.337036 
M419.132935,221.371521 
	C416.902252,214.827499 414.671570,208.283463 412.128143,200.821915 
	C408.819031,210.726013 405.862213,219.575638 402.821045,228.677795 
	C409.340820,228.677795 415.186462,228.677795 421.572876,228.677795 
	C420.755157,226.151382 420.102783,224.135834 419.132935,221.371521 
z"/>
<path fill="#0CA1D6" opacity="1.000000" stroke="none" 
	d="
M753.840698,257.468140 
	C751.767944,251.423340 749.994690,245.704926 747.806458,240.149994 
	C747.299072,238.862000 745.413147,237.341431 744.097595,237.279144 
	C737.780701,236.979980 731.431946,236.955124 725.118408,237.287643 
	C723.683411,237.363251 721.687378,238.962051 721.083679,240.352234 
	C719.303467,244.451508 718.133545,248.812317 716.648682,253.044067 
	C714.217346,259.973267 714.067993,260.029755 705.681641,258.503906 
	C708.086487,251.408554 710.363159,244.331573 712.879761,237.340942 
	C718.171326,222.641541 723.656799,208.011642 728.893494,193.293015 
	C729.859436,190.578079 730.986023,189.230911 734.122803,189.249939 
	C737.245728,189.268890 738.901489,190.173172 739.971985,193.221313 
	C744.212952,205.297394 748.623352,217.315643 753.112000,229.302505 
	C756.127319,237.354874 759.395325,245.312393 762.513428,253.326675 
	C763.160461,254.989685 763.645264,256.715851 764.635010,259.717560 
	C760.412720,258.978455 757.200989,258.416260 753.840698,257.468140 
M730.270325,212.794998 
	C728.556885,218.044571 726.843384,223.294128 725.043457,228.808411 
	C731.654602,228.808411 737.557617,228.808411 743.956055,228.808411 
	C740.773621,219.524628 737.724121,210.628769 734.370178,200.844666 
	C732.906799,205.215607 731.757446,208.648727 730.270325,212.794998 
z"/>
<path fill="#3B3734" opacity="1.000000" stroke="none" 
	d="
M259.000061,404.868317 
	C288.645935,404.868286 317.791779,404.867523 346.937653,404.870605 
	C348.269104,404.870758 349.632294,404.744232 350.917786,404.996826 
	C351.503021,405.111847 352.399902,406.076080 352.332977,406.535248 
	C352.216553,407.333740 351.596863,408.492920 350.946228,408.686127 
	C349.715973,409.051453 348.314270,408.863617 346.983795,408.863678 
	C241.892120,408.867920 136.800446,408.877136 31.708818,408.804901 
	C29.567717,408.803436 25.842682,410.431610 26.350609,404.868317 
	C103.741577,404.868317 181.120804,404.868317 259.000061,404.868317 
z"/>
<path fill="#383531" opacity="1.000000" stroke="none" 
	d="
M210.000000,357.969910 
	C255.806717,357.969727 301.113434,357.969391 346.420166,357.970062 
	C347.752655,357.970093 349.163147,357.716309 350.390045,358.078979 
	C351.201721,358.318878 352.017242,359.364594 352.291779,360.222168 
	C352.410950,360.594360 351.265289,361.726288 350.530762,361.933167 
	C349.448730,362.237885 348.220642,362.030060 347.054749,362.030060 
	C241.949814,362.030762 136.844864,362.030426 31.739931,362.030090 
	C30.907087,362.030060 29.953939,362.287384 29.268694,361.968933 
	C28.151928,361.449951 27.210127,360.554474 26.194487,359.817902 
	C27.164949,359.202881 28.065638,358.344116 29.125324,358.040771 
	C30.203249,357.732178 31.437828,357.970001 32.603809,357.970001 
	C91.569206,357.969879 150.534607,357.969910 210.000000,357.969910 
z"/>
<path fill="#383531" opacity="1.000000" stroke="none" 
	d="
M210.000000,385.030090 
	C150.367371,385.030090 91.234734,385.030273 32.102104,385.029175 
	C30.769619,385.029175 29.388535,385.222809 28.123199,384.927399 
	C27.385180,384.755127 26.198404,383.558624 26.319630,383.225861 
	C26.634466,382.361542 27.437922,381.376953 28.274666,381.076904 
	C29.309843,380.705627 30.575224,380.970459 31.741142,380.970459 
	C136.847321,380.969299 241.953491,380.969086 347.059662,380.969788 
	C348.225555,380.969818 349.453857,380.761597 350.535614,381.066772 
	C351.271057,381.274261 352.418396,382.409302 352.298706,382.779449 
	C352.021423,383.637054 351.204590,384.680237 350.391541,384.920380 
	C349.164490,385.282898 347.754089,385.029694 346.421600,385.029724 
	C301.114410,385.030457 255.807205,385.030212 210.000000,385.030090 
z"/>
<path fill="#0DA1D6" opacity="1.000000" stroke="none" 
	d="
M536.101685,249.817261 
	C531.968628,257.030060 525.642395,259.877075 518.070068,260.019928 
	C513.281799,260.110229 508.407135,259.920715 503.701843,259.104065 
	C496.453827,257.846130 496.214874,257.107635 497.567566,249.224716 
	C502.403748,250.232101 507.206451,251.470963 512.086914,252.156067 
	C514.835388,252.541885 517.751770,252.269623 520.521545,251.838242 
	C524.587341,251.205002 527.852051,248.990509 528.699341,244.806946 
	C529.567444,240.520660 529.752014,235.949707 525.615234,232.965088 
	C522.948120,231.040756 519.928772,229.579956 516.986633,228.068344 
	C514.032837,226.550735 510.872101,225.416580 507.990173,223.782578 
	C500.642975,219.616913 496.936554,211.964478 498.193115,204.054764 
	C499.459259,196.085037 504.686127,190.672607 513.562439,189.243912 
	C521.383545,187.985107 529.089661,189.005478 536.833679,192.725433 
	C535.746948,195.244537 534.735107,197.589905 533.986511,199.325241 
	C528.010803,198.499847 522.662659,197.435059 517.270264,197.114517 
	C512.549011,196.833878 508.847900,199.088242 507.327545,203.837936 
	C505.862793,208.413986 507.634552,213.319794 512.073975,215.894440 
	C516.079102,218.217209 520.431335,219.952362 524.668457,221.862442 
	C537.167114,227.496796 540.894836,236.351440 536.101685,249.817261 
z"/>
<path fill="#0CA1D6" opacity="1.000000" stroke="none" 
	d="
M486.058472,248.786911 
	C482.289856,256.496613 475.921234,259.618317 468.152435,259.995667 
	C463.533844,260.220001 458.796173,260.121582 454.254944,259.339020 
	C446.399445,257.985291 446.446045,257.714844 447.347107,249.288788 
	C451.965363,250.254730 456.535492,251.418442 461.176453,252.099655 
	C463.765076,252.479599 466.499268,252.278946 469.118988,251.950256 
	C474.522247,251.272324 477.750702,248.291885 478.541351,243.199844 
	C479.324280,238.157318 477.838776,233.860382 473.109772,231.389267 
	C468.697479,229.083633 464.037109,227.256317 459.594849,225.003738 
	C450.212128,220.245911 446.777863,213.931793 447.977936,203.474777 
	C448.738953,196.843765 452.750122,192.537628 458.871643,190.438034 
	C468.129120,187.262878 477.113678,188.723709 486.362946,192.659439 
	C485.298798,195.233307 484.371460,197.476364 483.576233,199.399780 
	C477.958740,198.551193 472.789307,197.449539 467.567780,197.075348 
	C462.737885,196.729263 458.649750,198.596069 457.013153,203.629761 
	C455.402405,208.583923 457.376831,213.616333 462.304993,216.383728 
	C466.201202,218.571640 470.452789,220.122665 474.528961,221.994858 
	C486.435577,227.463669 490.097626,235.796066 486.058472,248.786911 
z"/>
<path fill="#0CA1D6" opacity="1.000000" stroke="none" 
	d="
M661.199707,198.585205 
	C642.014587,193.140961 629.070496,202.779709 629.064636,222.399368 
	C629.063110,227.480087 629.574585,232.751465 630.988770,237.603455 
	C634.179260,248.549866 641.333923,253.178070 652.703003,252.265747 
	C657.295776,251.897202 661.841675,250.945389 666.407471,250.259232 
	C667.884094,257.442932 667.728210,258.350830 660.839478,259.247589 
	C654.475342,260.076080 647.788696,260.502472 641.513123,259.470306 
	C630.896545,257.724213 624.298706,250.833725 621.480713,240.326874 
	C619.116882,231.513016 618.245483,222.636078 620.232544,213.693787 
	C624.743164,193.395370 639.833740,186.718002 658.522278,189.341385 
	C662.064636,189.838654 665.477722,191.256271 668.869263,192.225998 
	C667.769226,199.683960 666.616882,200.630524 661.199707,198.585205 
z"/>
<path fill="#282623" opacity="1.000000" stroke="none" 
	d="
M277.000183,369.624237 
	C300.654816,369.623810 323.809387,369.621704 346.963989,369.627625 
	C348.294220,369.627960 349.661713,369.525146 350.937531,369.806946 
	C351.497345,369.930542 352.221130,370.895935 352.228943,371.487610 
	C352.236694,372.075073 351.525970,373.065216 350.976257,373.187744 
	C349.701111,373.472076 348.333069,373.371460 347.002655,373.371521 
	C241.890778,373.376465 136.778915,373.376129 31.667044,373.374451 
	C30.501213,373.374420 29.272646,373.571472 28.191050,373.263367 
	C27.437998,373.048889 26.886683,372.126221 26.245243,371.519897 
	C26.873556,370.900726 27.423054,369.891022 28.146847,369.744934 
	C29.589651,369.453766 31.128174,369.625824 32.627159,369.625793 
	C113.918167,369.624054 195.209167,369.624298 277.000183,369.624237 
z"/>
<path fill="#282623" opacity="1.000000" stroke="none" 
	d="
M278.999817,396.375763 
	C197.041977,396.375763 115.584167,396.375671 34.126354,396.375641 
	C32.960293,396.375641 31.731516,396.609802 30.643288,396.318695 
	C29.121643,395.911621 27.704824,395.112671 26.243160,394.481384 
	C27.717253,393.862244 29.190908,392.702240 30.665489,392.701080 
	C136.443970,392.616394 242.222519,392.616394 348.001007,392.702454 
	C349.445770,392.703613 350.889587,393.885193 352.333832,394.515808 
	C350.877350,395.136688 349.423523,396.291443 347.963989,396.298645 
	C325.143036,396.411743 302.321350,396.376648 278.999817,396.375763 
z"/>
<path fill="#0BA1D6" opacity="1.000000" stroke="none" 
	d="
M792.141846,218.000351 
	C792.141907,231.785767 792.141907,245.071320 792.141907,258.748657 
	C789.062805,258.748657 786.361145,258.748657 783.067627,258.748657 
	C783.067627,238.607742 783.067627,218.575546 783.067627,198.103516 
	C776.577576,198.103516 770.651184,198.103516 764.296997,198.103516 
	C764.296997,195.316116 764.296997,192.964615 764.296997,190.278702 
	C780.217346,190.278702 796.095276,190.278702 812.294556,190.278702 
	C812.294556,192.686661 812.294556,194.923538 812.294556,197.719864 
	C805.719055,197.719864 799.321106,197.719864 792.141724,197.719864 
	C792.141724,204.664017 792.141724,211.082260 792.141846,218.000351 
z"/>
<path fill="#0BA0D6" opacity="1.000000" stroke="none" 
	d="
M841.833313,191.013275 
	C842.693604,194.634308 840.607056,195.653168 838.133240,195.899078 
	C835.051941,196.205338 833.937317,197.509369 833.965759,200.696793 
	C834.108398,216.672058 834.117432,232.650146 833.959351,248.625107 
	C833.927368,251.855728 835.105591,253.052322 838.132568,253.341980 
	C841.243103,253.639633 843.077820,255.096817 841.479736,258.859497 
	C833.614685,258.859497 825.692993,258.859497 817.614197,258.859497 
	C816.074890,255.674820 817.085449,253.714264 820.516479,253.491486 
	C824.596375,253.226624 825.060120,250.929382 825.029419,247.503723 
	C824.892029,232.194107 824.908875,216.882111 825.018982,201.572052 
	C825.042053,198.365173 824.733215,196.127777 820.753479,195.853577 
	C817.628662,195.638260 815.893433,193.888260 817.426880,190.595520 
	C825.568542,190.595520 833.636230,190.595520 841.833313,191.013275 
z"/>
<path fill="#0CA1D6" opacity="1.000000" stroke="none" 
	d="
M693.702271,197.018692 
	C693.230469,214.769043 693.029419,232.247955 693.133057,249.725067 
	C693.140015,250.907211 695.250549,252.563828 696.720276,253.143051 
	C699.312317,254.164505 702.112671,254.565186 700.483337,258.786926 
	C692.613892,258.786926 684.546936,258.786926 676.377625,258.786926 
	C675.247925,255.795471 675.775696,253.782486 679.208557,253.546738 
	C683.443359,253.255920 683.983398,250.807816 683.936096,247.116684 
	C683.743713,232.121353 683.761047,217.121063 683.925903,202.125061 
	C683.966125,198.467773 683.484253,196.062698 679.148376,195.737854 
	C675.912292,195.495392 675.120911,193.357086 676.463562,190.208069 
	C684.369019,190.208069 692.308899,190.208069 700.223206,190.208069 
	C701.168518,194.711792 701.168518,194.711792 693.702271,197.018692 
z"/>
<path fill="#FEFDFC" opacity="1.000000" stroke="none" 
	d="
M356.696594,150.771118 
	C356.927979,150.403595 357.283203,150.378677 357.638397,150.353775 
	C357.559692,150.743912 357.480957,151.134064 357.402222,151.524200 
	C357.208282,151.387375 357.014343,151.250549 356.696594,150.771118 
z"/>
<path fill="#FBFAF8" opacity="1.000000" stroke="none" 
	d="
M580.214111,117.802185 
	C587.103149,128.707245 586.410339,139.986786 582.871155,151.247833 
	C581.058044,157.016907 576.476013,159.951080 570.266846,160.029144 
	C563.893677,160.109268 559.225708,157.315826 557.028870,151.369492 
	C553.447388,141.674957 553.322693,131.706146 557.128174,122.124855 
	C560.848755,112.757156 571.654541,110.826591 580.214111,117.802185 
z"/>
<path fill="#F7F5F4" opacity="1.000000" stroke="none" 
	d="
M277.360718,116.536362 
	C282.122559,119.079330 281.585175,123.091370 280.544922,126.745293 
	C279.356018,130.921249 273.325989,132.803116 266.058594,131.697159 
	C266.058594,126.182808 266.058594,120.620605 266.058594,113.822220 
	C269.931549,114.697891 273.486298,115.501625 277.360718,116.536362 
z"/>
<path fill="#F7F5F4" opacity="1.000000" stroke="none" 
	d="
M863.711914,119.302017 
	C870.187805,129.556412 869.933350,140.087204 865.826721,150.543671 
	C863.151550,157.355331 854.289246,160.404892 844.609375,158.621582 
	C844.609375,144.132019 844.609375,129.593369 844.609375,114.775551 
	C851.621155,113.577202 857.844177,114.863388 863.711914,119.302017 
z"/>
<path fill="#ECEAE9" opacity="1.000000" stroke="none" 
	d="
M164.509003,229.700668 
	C160.140930,229.704651 156.218597,229.704651 151.676422,229.704651 
	C154.346069,220.220001 156.802444,211.493118 159.450256,202.086014 
	C162.016541,210.714325 164.461014,218.683716 166.659058,226.720490 
	C166.871979,227.498947 165.559265,228.694656 164.509003,229.700668 
z"/>
<path fill="#F1F0EE" opacity="1.000000" stroke="none" 
	d="
M713.903076,142.957321 
	C710.792053,142.957489 708.148621,142.957489 704.650879,142.957489 
	C707.221130,133.317673 709.661255,124.166061 712.383911,113.954742 
	C715.203552,124.152046 717.725525,133.272919 720.403259,142.957153 
	C717.970825,142.957153 716.170776,142.957153 713.903076,142.957321 
z"/>
<path fill="#F1F0EE" opacity="1.000000" stroke="none" 
	d="
M1033.932007,142.957230 
	C1031.303589,142.957214 1029.149048,142.957214 1026.271729,142.957214 
	C1028.735596,133.691330 1031.088135,124.844551 1033.440674,115.997772 
	C1033.801758,115.972435 1034.162964,115.947105 1034.524170,115.921776 
	C1036.979736,124.687653 1039.435181,133.453537 1042.097412,142.957245 
	C1039.223267,142.957245 1036.814575,142.957245 1033.932007,142.957230 
z"/>
<path fill="#F1F0EE" opacity="1.000000" stroke="none" 
	d="
M404.194855,139.507782 
	C406.518311,132.256592 407.200348,124.884758 410.696350,118.517021 
	C411.234772,118.541840 411.773193,118.566658 412.311615,118.591476 
	C414.545929,126.555580 416.780212,134.519684 419.145844,142.951920 
	C414.421753,142.951920 410.287048,142.837814 406.162506,142.993149 
	C403.535370,143.092102 403.578003,141.763992 404.194855,139.507782 
z"/>
<path fill="#F1F0EE" opacity="1.000000" stroke="none" 
	d="
M926.276001,138.761810 
	C926.640320,140.269943 926.872009,141.369904 927.160706,142.740662 
	C921.759644,142.740662 916.670105,142.740662 910.592346,142.740662 
	C913.587952,133.308548 916.478577,124.207260 919.624695,114.301323 
	C921.917786,122.762253 924.030579,130.557938 926.276001,138.761810 
z"/>
<path fill="#F1F0EE" opacity="1.000000" stroke="none" 
	d="
M95.316498,206.303696 
	C95.004555,203.273132 95.637161,201.937683 98.730423,201.968185 
	C106.289787,202.042770 110.416763,205.749008 110.037270,212.630112 
	C109.658859,219.491425 104.696693,222.623596 95.316902,221.501816 
	C95.316902,216.640762 95.316902,211.703171 95.316498,206.303696 
z"/>
<path fill="#FAFCFC" opacity="1.000000" stroke="none" 
	d="
M864.331787,208.549301 
	C869.294067,198.903717 876.321106,195.379105 886.623535,197.100769 
	C894.725281,198.454651 901.081970,205.678925 901.633667,216.432465 
	C902.035339,224.262817 901.116577,232.321182 899.600098,240.044937 
	C898.060974,247.883392 891.086121,252.228271 882.382141,252.352875 
	C873.591248,252.478699 867.143860,248.414658 864.759766,240.590759 
	C863.139648,235.273804 861.386597,229.755447 861.268372,224.293076 
	C861.157837,219.183990 863.122986,214.029968 864.331787,208.549301 
z"/>
<path fill="#FAFCFC" opacity="1.000000" stroke="none" 
	d="
M578.964111,252.354843 
	C566.755249,251.092773 563.142883,248.026794 559.916992,236.517822 
	C557.479736,227.822815 557.597534,219.092728 560.164124,210.491486 
	C562.380066,203.064972 567.162415,197.999939 575.169495,197.076584 
	C583.676941,196.095520 591.019165,198.017380 595.409119,206.384735 
	C602.435486,219.777069 601.402954,232.828796 593.633606,245.425186 
	C590.498718,250.507843 585.145203,252.060013 578.964111,252.354843 
z"/>
<path fill="#F0F8FB" opacity="1.000000" stroke="none" 
	d="
M419.291687,221.745911 
	C420.102783,224.135834 420.755157,226.151382 421.572876,228.677795 
	C415.186462,228.677795 409.340820,228.677795 402.821045,228.677795 
	C405.862213,219.575638 408.819031,210.726013 412.128143,200.821915 
	C414.671570,208.283463 416.902252,214.827499 419.291687,221.745911 
z"/>
<path fill="#F0F8FB" opacity="1.000000" stroke="none" 
	d="
M730.439209,212.438416 
	C731.757446,208.648727 732.906799,205.215607 734.370178,200.844666 
	C737.724121,210.628769 740.773621,219.524628 743.956055,228.808411 
	C737.557617,228.808411 731.654602,228.808411 725.043457,228.808411 
	C726.843384,223.294128 728.556885,218.044571 730.439209,212.438416 
z"/>
</svg>